ffmpeg started on 2026-04-09 at 15:29:50
Report written to "D:\Convert\FFMetrics\reports\ssim_report-6.txt"
Log level: 32
Command line:
ffmpeg -hide_banner -nostdin -r 24000/1001 -i "F:\\Convert\\files\\[DC] Make Heroine ga Oosugiru - 07_Telegram_HEVC(321).mkv" -r 24000/1001 -i "F:\\Convert\\files\\[DC] Make Heroine ga Oosugiru - 07_Telegram.mp4" -lavfi "[0:v]settb=AVTB,setpts=PTS-STARTPTS,format=pix_fmts=yuv420p10le,fps=24000/1001,scale=1920:1080:flags=lanczos:param0=3:out_range=limited:out_color_matrix=bt709:out_chroma_loc=left,setsar=1/1,setdar=(1920/1080)*(1/1),colorspace=format=yuv420p10:range=tv:primaries=bt709:trc=bt709:space=bt709:fast=0[main];[1:v]settb=AVTB,setpts=PTS-STARTPTS,format=pix_fmts=yuv420p,fps=24000/1001,scale=1920:1080:flags=lanczos:param0=3:out_range=limited:out_color_matrix=bt709:out_chroma_loc=left,setsar=1/1,setdar=(1920/1080)*(1/1),colorspace=format=yuv420p:range=tv:primaries=bt709:trc=bt709:space=bt709:fast=0[ref];[main][ref]ssim=eof_action=endall:stats_file='D\\:/Convert/FFMetrics/logs/ssim_logfile-6.txt'" -f null -
Input #0, matroska,webm, from 'F:\Convert\files\[DC] Make Heroine ga Oosugiru - 07_Telegram_HEVC(321).mkv':
  Metadata:
    COMPATIBLE_BRANDS: isomiso2avc1mp41
    MAJOR_BRAND     : isom
    MINOR_VERSION   : 512
    ENCODER         : Lavf61.7.100
  Duration: 00:24:06.79, start: -0.021000, bitrate: 1002 kb/s
  Stream #0:0: Video: hevc (Main 10), yuv420p10le(tv, bt709, progressive), 1920x1080 [SAR 1:1 DAR 16:9], 23.98 fps, 23.98 tbr, 1k tbn (default)
      Metadata:
        HANDLER_NAME    : VideoHandler
        VENDOR_ID       : [0][0][0][0]
        ENCODER         : Lavc61.19.100 libx265
        BPS             : 805312
        DURATION        : 00:24:06.569708333
        NUMBER_OF_FRAMES: 34683
        NUMBER_OF_BYTES : 145617569
        _STATISTICS_WRITING_APP: mkvpropedit v94.0 ('Initiate') 64-bit
        _STATISTICS_WRITING_DATE_UTC: 2026-04-09 10:48:41
        _STATISTICS_TAGS: BPS DURATION NUMBER_OF_FRAMES NUMBER_OF_BYTES
  Stream #0:1: Audio: aac (LC), 48000 Hz, stereo, fltp (default)
      Metadata:
        HANDLER_NAME    : SoundHandler
        VENDOR_ID       : [0][0][0][0]
        ENCODER         : Lavc61.19.100 aac
        BPS             : 193194
        DURATION        : 00:24:06.784000000
        NUMBER_OF_FRAMES: 67819
        NUMBER_OF_BYTES : 34938755
        _STATISTICS_WRITING_APP: mkvpropedit v94.0 ('Initiate') 64-bit
        _STATISTICS_WRITING_DATE_UTC: 2026-04-09 10:48:41
        _STATISTICS_TAGS: BPS DURATION NUMBER_OF_FRAMES NUMBER_OF_BYTES
Input #1, mov,mp4,m4a,3gp,3g2,mj2, from 'F:\Convert\files\[DC] Make Heroine ga Oosugiru - 07_Telegram.mp4':
  Metadata:
    major_brand     : isom
    minor_version   : 512
    compatible_brands: isomiso2avc1mp41
    encoder         : Lavf60.16.100
  Duration: 00:24:06.74, start: 0.000000, bitrate: 3764 kb/s
  Stream #1:0[0x1](und): Video: h264 (High) (avc1 / 0x31637661), yuv420p(tv, bt709, progressive), 1920x1080 [SAR 1:1 DAR 16:9], 3616 kb/s, 23.98 fps, 23.98 tbr, 24k tbn (default)
      Metadata:
        handler_name    : VideoHandler
        vendor_id       : [0][0][0][0]
        encoder         : Lavc60.31.102 h264_qsv
  Stream #1:1[0x2](und): Audio: aac (HE-AACv2) (mp4a / 0x6134706D), 48000 Hz, stereo, fltp, 144 kb/s (default)
      Metadata:
        handler_name    : SoundHandler
        vendor_id       : [0][0][0][0]
Stream mapping:
  Stream #0:0 (hevc) -> settb:default
  Stream #1:0 (h264) -> settb:default
  ssim:default -> Stream #0:0 (wrapped_avframe)
  Stream #0:1 -> #0:1 (aac (native) -> pcm_s16le (native))
Output #0, null, to 'pipe:':
  Metadata:
    COMPATIBLE_BRANDS: isomiso2avc1mp41
    MAJOR_BRAND     : isom
    MINOR_VERSION   : 512
    encoder         : Lavf61.7.100
  Stream #0:0: Video: wrapped_avframe, yuv420p10le(tv, bt709, progressive), 1920x1080 [SAR 1:1 DAR 16:9], q=2-31, 200 kb/s, 23.98 fps, 23.98 tbn
      Metadata:
        encoder         : Lavc61.19.100 wrapped_avframe
  Stream #0:1: Audio: pcm_s16le, 48000 Hz, stereo, s16, 1536 kb/s (default)
      Metadata:
        HANDLER_NAME    : SoundHandler
        VENDOR_ID       : [0][0][0][0]
        _STATISTICS_TAGS: BPS DURATION NUMBER_OF_FRAMES NUMBER_OF_BYTES
        BPS             : 193194
        DURATION        : 00:24:06.784000000
        NUMBER_OF_FRAMES: 67819
        NUMBER_OF_BYTES : 34938755
        _STATISTICS_WRITING_APP: mkvpropedit v94.0 ('Initiate') 64-bit
        _STATISTICS_WRITING_DATE_UTC: 2026-04-09 10:48:41
        encoder         : Lavc61.19.100 pcm_s16le
frame=  130 fps=0.0 q=-0.0 size=N/A time=00:00:05.42 bitrate=N/A speed=10.4x    frame=  295 fps=286 q=-0.0 size=N/A time=00:00:12.30 bitrate=N/A speed=11.9x    frame=  487 fps=316 q=-0.0 size=N/A time=00:00:20.31 bitrate=N/A speed=13.2x    frame=  685 fps=331 q=-0.0 size=N/A time=00:00:28.57 bitrate=N/A speed=13.8x    frame=  880 fps=339 q=-0.0 size=N/A time=00:00:36.70 bitrate=N/A speed=14.1x    frame= 1017 fps=327 q=-0.0 size=N/A time=00:00:42.41 bitrate=N/A speed=13.6x    frame= 1175 fps=324 q=-0.0 size=N/A time=00:00:49.00 bitrate=N/A speed=13.5x    frame= 1334 fps=323 q=-0.0 size=N/A time=00:00:55.63 bitrate=N/A speed=13.5x    frame= 1508 fps=324 q=-0.0 size=N/A time=00:01:02.89 bitrate=N/A speed=13.5x    frame= 1646 fps=318 q=-0.0 size=N/A time=00:01:08.65 bitrate=N/A speed=13.3x    frame= 1805 fps=317 q=-0.0 size=N/A time=00:01:15.28 bitrate=N/A speed=13.2x    frame= 1955 fps=316 q=-0.0 size=N/A time=00:01:21.53 bitrate=N/A speed=13.2x    frame= 2082 fps=310 q=-0.0 size=N/A time=00:01:26.83 bitrate=N/A speed=12.9x    frame= 2219 fps=307 q=-0.0 size=N/A time=00:01:32.55 bitrate=N/A speed=12.8x    frame= 2363 fps=305 q=-0.0 size=N/A time=00:01:38.55 bitrate=N/A speed=12.7x    frame= 2486 fps=301 q=-0.0 size=N/A time=00:01:43.68 bitrate=N/A speed=12.6x    frame= 2625 fps=299 q=-0.0 size=N/A time=00:01:49.48 bitrate=N/A speed=12.5x    frame= 2794 fps=301 q=-0.0 size=N/A time=00:01:56.53 bitrate=N/A speed=12.5x    frame= 2954 fps=301 q=-0.0 size=N/A time=00:02:03.20 bitrate=N/A speed=12.5x    frame= 3132 fps=303 q=-0.0 size=N/A time=00:02:10.63 bitrate=N/A speed=12.6x    frame= 3312 fps=306 q=-0.0 size=N/A time=00:02:18.13 bitrate=N/A speed=12.7x    frame= 3507 fps=309 q=-0.0 size=N/A time=00:02:26.27 bitrate=N/A speed=12.9x    frame= 3693 fps=311 q=-0.0 size=N/A time=00:02:34.02 bitrate=N/A speed=  13x    frame= 3879 fps=313 q=-0.0 size=N/A time=00:02:41.78 bitrate=N/A speed=13.1x    frame= 4063 fps=315 q=-0.0 size=N/A time=00:02:49.46 bitrate=N/A speed=13.1x    frame= 4264 fps=318 q=-0.0 size=N/A time=00:02:57.84 bitrate=N/A speed=13.2x    frame= 4452 fps=319 q=-0.0 size=N/A time=00:03:05.68 bitrate=N/A speed=13.3x    frame= 4640 fps=321 q=-0.0 size=N/A time=00:03:13.52 bitrate=N/A speed=13.4x    frame= 4820 fps=322 q=-0.0 size=N/A time=00:03:21.03 bitrate=N/A speed=13.4x    frame= 5005 fps=323 q=-0.0 size=N/A time=00:03:28.75 bitrate=N/A speed=13.5x    frame= 5185 fps=324 q=-0.0 size=N/A time=00:03:36.25 bitrate=N/A speed=13.5x    frame= 5353 fps=324 q=-0.0 size=N/A time=00:03:43.26 bitrate=N/A speed=13.5x    frame= 5545 fps=325 q=-0.0 size=N/A time=00:03:51.27 bitrate=N/A speed=13.6x    frame= 5722 fps=326 q=-0.0 size=N/A time=00:03:58.65 bitrate=N/A speed=13.6x    frame= 5902 fps=327 q=-0.0 size=N/A time=00:04:06.16 bitrate=N/A speed=13.6x    frame= 6087 fps=328 q=-0.0 size=N/A time=00:04:13.87 bitrate=N/A speed=13.7x    frame= 6272 fps=328 q=-0.0 size=N/A time=00:04:21.59 bitrate=N/A speed=13.7x    frame= 6453 fps=329 q=-0.0 size=N/A time=00:04:29.14 bitrate=N/A speed=13.7x    frame= 6638 fps=330 q=-0.0 size=N/A time=00:04:36.85 bitrate=N/A speed=13.8x    frame= 6828 fps=331 q=-0.0 size=N/A time=00:04:44.78 bitrate=N/A speed=13.8x    frame= 7011 fps=331 q=-0.0 size=N/A time=00:04:52.41 bitrate=N/A speed=13.8x    frame= 7190 fps=332 q=-0.0 size=N/A time=00:04:59.88 bitrate=N/A speed=13.8x    frame= 7377 fps=332 q=-0.0 size=N/A time=00:05:07.68 bitrate=N/A speed=13.9x    frame= 7543 fps=332 q=-0.0 size=N/A time=00:05:14.60 bitrate=N/A speed=13.9x    frame= 7714 fps=332 q=-0.0 size=N/A time=00:05:21.73 bitrate=N/A speed=13.9x    frame= 7898 fps=333 q=-0.0 size=N/A time=00:05:29.41 bitrate=N/A speed=13.9x    frame= 8082 fps=333 q=-0.0 size=N/A time=00:05:37.08 bitrate=N/A speed=13.9x    frame= 8262 fps=334 q=-0.0 size=N/A time=00:05:44.59 bitrate=N/A speed=13.9x    frame= 8453 fps=334 q=-0.0 size=N/A time=00:05:52.56 bitrate=N/A speed=13.9x    frame= 8634 fps=335 q=-0.0 size=N/A time=00:06:00.10 bitrate=N/A speed=  14x    frame= 8820 fps=335 q=-0.0 size=N/A time=00:06:07.86 bitrate=N/A speed=  14x    frame= 9005 fps=336 q=-0.0 size=N/A time=00:06:15.58 bitrate=N/A speed=  14x    frame= 9194 fps=336 q=-0.0 size=N/A time=00:06:23.46 bitrate=N/A speed=  14x    frame= 9373 fps=336 q=-0.0 size=N/A time=00:06:30.93 bitrate=N/A speed=  14x    frame= 9557 fps=337 q=-0.0 size=N/A time=00:06:38.60 bitrate=N/A speed=14.1x    frame= 9734 fps=337 q=-0.0 size=N/A time=00:06:45.98 bitrate=N/A speed=  14x    frame= 9913 fps=337 q=-0.0 size=N/A time=00:06:53.45 bitrate=N/A speed=14.1x    frame=10085 fps=337 q=-0.0 size=N/A time=00:07:00.62 bitrate=N/A speed=14.1x    frame=10268 fps=337 q=-0.0 size=N/A time=00:07:08.26 bitrate=N/A speed=14.1x    frame=10448 fps=338 q=-0.0 size=N/A time=00:07:15.76 bitrate=N/A speed=14.1x    frame=10625 fps=338 q=-0.0 size=N/A time=00:07:23.15 bitrate=N/A speed=14.1x    frame=10810 fps=338 q=-0.0 size=N/A time=00:07:30.86 bitrate=N/A speed=14.1x    frame=10998 fps=338 q=-0.0 size=N/A time=00:07:38.70 bitrate=N/A speed=14.1x    frame=11182 fps=339 q=-0.0 size=N/A time=00:07:46.38 bitrate=N/A speed=14.1x    frame=11363 fps=339 q=-0.0 size=N/A time=00:07:53.93 bitrate=N/A speed=14.1x    frame=11549 fps=339 q=-0.0 size=N/A time=00:08:01.68 bitrate=N/A speed=14.1x    frame=11740 fps=340 q=-0.0 size=N/A time=00:08:09.65 bitrate=N/A speed=14.2x    frame=11923 fps=340 q=-0.0 size=N/A time=00:08:17.28 bitrate=N/A speed=14.2x    frame=12112 fps=340 q=-0.0 size=N/A time=00:08:25.17 bitrate=N/A speed=14.2x    frame=12295 fps=340 q=-0.0 size=N/A time=00:08:32.80 bitrate=N/A speed=14.2x    frame=12479 fps=341 q=-0.0 size=N/A time=00:08:40.47 bitrate=N/A speed=14.2x    frame=12657 fps=341 q=-0.0 size=N/A time=00:08:47.90 bitrate=N/A speed=14.2x    frame=12845 fps=341 q=-0.0 size=N/A time=00:08:55.74 bitrate=N/A speed=14.2x    frame=13027 fps=341 q=-0.0 size=N/A time=00:09:03.33 bitrate=N/A speed=14.2x    frame=13211 fps=341 q=-0.0 size=N/A time=00:09:11.00 bitrate=N/A speed=14.2x    frame=13390 fps=342 q=-0.0 size=N/A time=00:09:18.47 bitrate=N/A speed=14.2x    frame=13570 fps=342 q=-0.0 size=N/A time=00:09:25.98 bitrate=N/A speed=14.3x    frame=13764 fps=342 q=-0.0 size=N/A time=00:09:34.07 bitrate=N/A speed=14.3x    frame=13941 fps=342 q=-0.0 size=N/A time=00:09:41.45 bitrate=N/A speed=14.3x    frame=14108 fps=342 q=-0.0 size=N/A time=00:09:48.42 bitrate=N/A speed=14.3x    frame=14281 fps=342 q=-0.0 size=N/A time=00:09:55.63 bitrate=N/A speed=14.3x    frame=14469 fps=342 q=-0.0 size=N/A time=00:10:03.47 bitrate=N/A speed=14.3x    frame=14651 fps=342 q=-0.0 size=N/A time=00:10:11.06 bitrate=N/A speed=14.3x    frame=14837 fps=342 q=-0.0 size=N/A time=00:10:18.82 bitrate=N/A speed=14.3x    frame=15015 fps=343 q=-0.0 size=N/A time=00:10:26.25 bitrate=N/A speed=14.3x    frame=15176 fps=342 q=-0.0 size=N/A time=00:10:32.96 bitrate=N/A speed=14.3x    frame=15359 fps=342 q=-0.0 size=N/A time=00:10:40.59 bitrate=N/A speed=14.3x    frame=15543 fps=342 q=-0.0 size=N/A time=00:10:48.27 bitrate=N/A speed=14.3x    frame=15732 fps=343 q=-0.0 size=N/A time=00:10:56.15 bitrate=N/A speed=14.3x    frame=15916 fps=343 q=-0.0 size=N/A time=00:11:03.82 bitrate=N/A speed=14.3x    frame=16094 fps=343 q=-0.0 size=N/A time=00:11:11.25 bitrate=N/A speed=14.3x    frame=16288 fps=343 q=-0.0 size=N/A time=00:11:19.34 bitrate=N/A speed=14.3x    frame=16465 fps=343 q=-0.0 size=N/A time=00:11:26.72 bitrate=N/A speed=14.3x    frame=16660 fps=344 q=-0.0 size=N/A time=00:11:34.86 bitrate=N/A speed=14.3x    frame=16845 fps=344 q=-0.0 size=N/A time=00:11:42.57 bitrate=N/A speed=14.3x    frame=17029 fps=344 q=-0.0 size=N/A time=00:11:50.25 bitrate=N/A speed=14.3x    frame=17217 fps=344 q=-0.0 size=N/A time=00:11:58.09 bitrate=N/A speed=14.4x    frame=17401 fps=344 q=-0.0 size=N/A time=00:12:05.76 bitrate=N/A speed=14.4x    frame=17583 fps=344 q=-0.0 size=N/A time=00:12:13.35 bitrate=N/A speed=14.4x    frame=17764 fps=344 q=-0.0 size=N/A time=00:12:20.90 bitrate=N/A speed=14.4x    frame=17957 fps=345 q=-0.0 size=N/A time=00:12:28.95 bitrate=N/A speed=14.4x    frame=18146 fps=345 q=-0.0 size=N/A time=00:12:36.83 bitrate=N/A speed=14.4x    frame=18323 fps=345 q=-0.0 size=N/A time=00:12:44.22 bitrate=N/A speed=14.4x    frame=18506 fps=345 q=-0.0 size=N/A time=00:12:51.85 bitrate=N/A speed=14.4x    frame=18698 fps=345 q=-0.0 size=N/A time=00:12:59.86 bitrate=N/A speed=14.4x    frame=18883 fps=345 q=-0.0 size=N/A time=00:13:07.57 bitrate=N/A speed=14.4x    frame=19071 fps=346 q=-0.0 size=N/A time=00:13:15.41 bitrate=N/A speed=14.4x    frame=19256 fps=346 q=-0.0 size=N/A time=00:13:23.13 bitrate=N/A speed=14.4x    frame=19441 fps=346 q=-0.0 size=N/A time=00:13:30.85 bitrate=N/A speed=14.4x    frame=19631 fps=346 q=-0.0 size=N/A time=00:13:38.77 bitrate=N/A speed=14.4x    frame=19822 fps=346 q=-0.0 size=N/A time=00:13:46.74 bitrate=N/A speed=14.4x    frame=20014 fps=346 q=-0.0 size=N/A time=00:13:54.75 bitrate=N/A speed=14.5x    frame=20202 fps=347 q=-0.0 size=N/A time=00:14:02.59 bitrate=N/A speed=14.5x    frame=20383 fps=347 q=-0.0 size=N/A time=00:14:10.14 bitrate=N/A speed=14.5x    frame=20561 fps=347 q=-0.0 size=N/A time=00:14:17.56 bitrate=N/A speed=14.5x    frame=20727 fps=346 q=-0.0 size=N/A time=00:14:24.48 bitrate=N/A speed=14.5x    frame=20920 fps=347 q=-0.0 size=N/A time=00:14:32.53 bitrate=N/A speed=14.5x    frame=21109 fps=347 q=-0.0 size=N/A time=00:14:40.42 bitrate=N/A speed=14.5x    frame=21291 fps=347 q=-0.0 size=N/A time=00:14:48.01 bitrate=N/A speed=14.5x    frame=21480 fps=347 q=-0.0 size=N/A time=00:14:55.89 bitrate=N/A speed=14.5x    frame=21666 fps=347 q=-0.0 size=N/A time=00:15:03.65 bitrate=N/A speed=14.5x    frame=21859 fps=347 q=-0.0 size=N/A time=00:15:11.70 bitrate=N/A speed=14.5x    frame=22048 fps=348 q=-0.0 size=N/A time=00:15:19.58 bitrate=N/A speed=14.5x    frame=22226 fps=348 q=-0.0 size=N/A time=00:15:27.00 bitrate=N/A speed=14.5x    frame=22419 fps=348 q=-0.0 size=N/A time=00:15:35.05 bitrate=N/A speed=14.5x    frame=22607 fps=348 q=-0.0 size=N/A time=00:15:42.90 bitrate=N/A speed=14.5x    frame=22792 fps=348 q=-0.0 size=N/A time=00:15:50.61 bitrate=N/A speed=14.5x    frame=22973 fps=348 q=-0.0 size=N/A time=00:15:58.16 bitrate=N/A speed=14.5x    frame=23158 fps=348 q=-0.0 size=N/A time=00:16:05.88 bitrate=N/A speed=14.5x    frame=23343 fps=348 q=-0.0 size=N/A time=00:16:13.59 bitrate=N/A speed=14.5x    frame=23528 fps=348 q=-0.0 size=N/A time=00:16:21.31 bitrate=N/A speed=14.5x    frame=23711 fps=348 q=-0.0 size=N/A time=00:16:28.94 bitrate=N/A speed=14.5x    frame=23898 fps=348 q=-0.0 size=N/A time=00:16:36.74 bitrate=N/A speed=14.5x    frame=24088 fps=348 q=-0.0 size=N/A time=00:16:44.67 bitrate=N/A speed=14.5x    frame=24270 fps=348 q=-0.0 size=N/A time=00:16:52.26 bitrate=N/A speed=14.5x    frame=24458 fps=349 q=-0.0 size=N/A time=00:17:00.10 bitrate=N/A speed=14.5x    frame=24644 fps=349 q=-0.0 size=N/A time=00:17:07.86 bitrate=N/A speed=14.5x    frame=24839 fps=349 q=-0.0 size=N/A time=00:17:15.99 bitrate=N/A speed=14.6x    frame=25026 fps=349 q=-0.0 size=N/A time=00:17:23.79 bitrate=N/A speed=14.6x    frame=25219 fps=349 q=-0.0 size=N/A time=00:17:31.84 bitrate=N/A speed=14.6x    frame=25393 fps=349 q=-0.0 size=N/A time=00:17:39.09 bitrate=N/A speed=14.6x    frame=25582 fps=349 q=-0.0 size=N/A time=00:17:46.98 bitrate=N/A speed=14.6x    frame=25760 fps=349 q=-0.0 size=N/A time=00:17:54.40 bitrate=N/A speed=14.6x    frame=25946 fps=349 q=-0.0 size=N/A time=00:18:02.16 bitrate=N/A speed=14.6x    frame=26127 fps=349 q=-0.0 size=N/A time=00:18:09.71 bitrate=N/A speed=14.6x    frame=26324 fps=350 q=-0.0 size=N/A time=00:18:17.93 bitrate=N/A speed=14.6x    frame=26513 fps=350 q=-0.0 size=N/A time=00:18:25.81 bitrate=N/A speed=14.6x    frame=26698 fps=350 q=-0.0 size=N/A time=00:18:33.52 bitrate=N/A speed=14.6x    frame=26872 fps=350 q=-0.0 size=N/A time=00:18:40.78 bitrate=N/A speed=14.6x    frame=27050 fps=350 q=-0.0 size=N/A time=00:18:48.21 bitrate=N/A speed=14.6x    frame=27225 fps=350 q=-0.0 size=N/A time=00:18:55.50 bitrate=N/A speed=14.6x    frame=27404 fps=350 q=-0.0 size=N/A time=00:19:02.97 bitrate=N/A speed=14.6x    frame=27584 fps=350 q=-0.0 size=N/A time=00:19:10.48 bitrate=N/A speed=14.6x    frame=27770 fps=350 q=-0.0 size=N/A time=00:19:18.24 bitrate=N/A speed=14.6x    frame=27948 fps=350 q=-0.0 size=N/A time=00:19:25.66 bitrate=N/A speed=14.6x    frame=28140 fps=350 q=-0.0 size=N/A time=00:19:33.67 bitrate=N/A speed=14.6x    frame=28320 fps=350 q=-0.0 size=N/A time=00:19:41.18 bitrate=N/A speed=14.6x    frame=28507 fps=350 q=-0.0 size=N/A time=00:19:48.97 bitrate=N/A speed=14.6x    frame=28690 fps=350 q=-0.0 size=N/A time=00:19:56.61 bitrate=N/A speed=14.6x    frame=28851 fps=350 q=-0.0 size=N/A time=00:20:03.32 bitrate=N/A speed=14.6x    frame=29016 fps=349 q=-0.0 size=N/A time=00:20:10.20 bitrate=N/A speed=14.6x    frame=29192 fps=349 q=-0.0 size=N/A time=00:20:17.54 bitrate=N/A speed=14.6x    frame=29366 fps=349 q=-0.0 size=N/A time=00:20:24.80 bitrate=N/A speed=14.6x    frame=29530 fps=349 q=-0.0 size=N/A time=00:20:31.64 bitrate=N/A speed=14.6x    frame=29693 fps=349 q=-0.0 size=N/A time=00:20:38.44 bitrate=N/A speed=14.6x    frame=29869 fps=349 q=-0.0 size=N/A time=00:20:45.78 bitrate=N/A speed=14.5x    frame=30026 fps=349 q=-0.0 size=N/A time=00:20:52.33 bitrate=N/A speed=14.5x    frame=30202 fps=349 q=-0.0 size=N/A time=00:20:59.67 bitrate=N/A speed=14.5x    frame=30384 fps=349 q=-0.0 size=N/A time=00:21:07.26 bitrate=N/A speed=14.5x    frame=30569 fps=349 q=-0.0 size=N/A time=00:21:14.98 bitrate=N/A speed=14.5x    frame=30754 fps=349 q=-0.0 size=N/A time=00:21:22.69 bitrate=N/A speed=14.5x    frame=30941 fps=349 q=-0.0 size=N/A time=00:21:30.49 bitrate=N/A speed=14.5x    frame=31122 fps=349 q=-0.0 size=N/A time=00:21:38.04 bitrate=N/A speed=14.5x    frame=31306 fps=349 q=-0.0 size=N/A time=00:21:45.72 bitrate=N/A speed=14.5x    frame=31477 fps=349 q=-0.0 size=N/A time=00:21:52.85 bitrate=N/A speed=14.5x    frame=31653 fps=349 q=-0.0 size=N/A time=00:22:00.19 bitrate=N/A speed=14.5x    frame=31833 fps=349 q=-0.0 size=N/A time=00:22:07.70 bitrate=N/A speed=14.5x    frame=32003 fps=349 q=-0.0 size=N/A time=00:22:14.79 bitrate=N/A speed=14.5x    frame=32189 fps=349 q=-0.0 size=N/A time=00:22:22.54 bitrate=N/A speed=14.5x    frame=32378 fps=349 q=-0.0 size=N/A time=00:22:30.43 bitrate=N/A speed=14.5x    frame=32562 fps=349 q=-0.0 size=N/A time=00:22:38.10 bitrate=N/A speed=14.5x    frame=32710 fps=348 q=-0.0 size=N/A time=00:22:44.27 bitrate=N/A speed=14.5x    frame=32860 fps=348 q=-0.0 size=N/A time=00:22:50.53 bitrate=N/A speed=14.5x    frame=33038 fps=348 q=-0.0 size=N/A time=00:22:57.95 bitrate=N/A speed=14.5x    frame=33220 fps=348 q=-0.0 size=N/A time=00:23:05.55 bitrate=N/A speed=14.5x    frame=33387 fps=348 q=-0.0 size=N/A time=00:23:12.51 bitrate=N/A speed=14.5x    frame=33545 fps=348 q=-0.0 size=N/A time=00:23:19.10 bitrate=N/A speed=14.5x    frame=33696 fps=347 q=-0.0 size=N/A time=00:23:25.40 bitrate=N/A speed=14.5x    frame=33818 fps=347 q=-0.0 size=N/A time=00:23:30.49 bitrate=N/A speed=14.5x    frame=33951 fps=346 q=-0.0 size=N/A time=00:23:36.03 bitrate=N/A speed=14.4x    frame=34111 fps=346 q=-0.0 size=N/A time=00:23:42.71 bitrate=N/A speed=14.4x    frame=34263 fps=346 q=-0.0 size=N/A time=00:23:49.05 bitrate=N/A speed=14.4x    frame=34389 fps=345 q=-0.0 size=N/A time=00:23:54.30 bitrate=N/A speed=14.4x    frame=34542 fps=345 q=-0.0 size=N/A time=00:24:00.68 bitrate=N/A speed=14.4x    [Parsed_ssim_16 @ 0000016f6b86b200] SSIM Y:0.994254 (22.406172) U:0.994024 (22.236233) V:0.993632 (21.959850) All:0.994112 (22.300246)
[out#0/null @ 0000016f5e3cdec0] video:14903KiB audio:271276KiB subtitle:0KiB other streams:0KiB global headers:0KiB muxing overhead: unknown
frame=34683 fps=345 q=-0.0 Lsize=N/A time=00:24:06.57 bitrate=N/A speed=14.4x    
